<?xml version="1.0" encoding="utf-8"?>
<svg xmlns="http://www.w3.org/2000/svg" width="256" zoomAndPan="magnify" viewBox="21.225 62.699 158.089 51.233" height="256" preserveAspectRatio="xMidYMid meet" version="1.0">
  <defs>
    <g/>
    <clipPath id="a65e512a72">
      <path d="M 0.0390625 13 L 27 13 L 27 39 L 0.0390625 39 Z M 0.0390625 13 " clip-rule="nonzero"/>
    </clipPath>
    <clipPath id="e26d4dfc82">
      <rect x="0" width="146" y="0" height="51"/>
    </clipPath>
    <clipPath id="f616884d3d">
      <rect x="0" width="94" y="0" height="13"/>
    </clipPath>
  </defs>
  <g transform="matrix(1, 0, 0, 1, 26.903431, 54.069885)">
    <g clip-path="url(#e26d4dfc82)">
      <g clip-path="url(#a65e512a72)">
        <g fill="#fdfdfd" fill-opacity="1">
          <g transform="translate(0.707818, 38.544494)">
            <g>
              <path d="M 11.53125 -14.140625 L 21.265625 -25.046875 L 25.71875 -25.046875 L 16.890625 -15.46875 L 22.875 0 L 14.296875 0 L 10.828125 -10.984375 L 8.5 0 L 0 0 L 5.3125 -25 L 13.859375 -25 Z M 11.53125 -14.140625 "/>
            </g>
          </g>
        </g>
      </g>
      <g fill="#fdfdfd" fill-opacity="1">
        <g transform="translate(24.649189, 38.544494)">
          <g>
            <path d="M 21.8125 0 L 12.59375 0 L 12.046875 -6.265625 L 4.765625 -6.265625 L 1.96875 0 L -1.84375 0 L 9.765625 -25 L 19.09375 -25 Z M 6.0625 -9.140625 L 11.765625 -9.140625 L 10.875 -19.84375 Z M 6.0625 -9.140625 "/>
          </g>
        </g>
      </g>
      <g fill="#fdfdfd" fill-opacity="1">
        <g transform="translate(48.354303, 38.544494)">
          <g>
            <path d="M 24.53125 -19.0625 C 24.53125 -17.507812 24.097656 -16.078125 23.234375 -14.765625 C 22.367188 -13.453125 20.9375 -12.453125 18.9375 -11.765625 L 23.5 0 L 14.71875 0 L 11.265625 -10.90625 L 10.828125 -10.90625 L 8.5 0 L 0 0 L 5.3125 -25 L 15.671875 -25 C 16.878906 -25 18.019531 -24.925781 19.09375 -24.78125 C 20.175781 -24.632812 21.113281 -24.34375 21.90625 -23.90625 C 22.707031 -23.476562 23.34375 -22.878906 23.8125 -22.109375 C 24.289062 -21.335938 24.53125 -20.320312 24.53125 -19.0625 Z M 13.1875 -13.421875 C 13.875 -13.421875 14.457031 -13.648438 14.9375 -14.109375 C 15.425781 -14.578125 15.820312 -15.140625 16.125 -15.796875 C 16.425781 -16.453125 16.640625 -17.148438 16.765625 -17.890625 C 16.898438 -18.640625 16.96875 -19.289062 16.96875 -19.84375 C 16.96875 -20.53125 16.847656 -21.113281 16.609375 -21.59375 C 16.378906 -22.082031 15.867188 -22.328125 15.078125 -22.328125 L 13.3125 -22.328125 L 11.34375 -13.421875 Z M 13.1875 -13.421875 "/>
          </g>
        </g>
      </g>
      <g fill="#fdfdfd" fill-opacity="1">
        <g transform="translate(72.492453, 38.544494)">
          <g>
            <path d="M 3.234375 -25 L 12.203125 -25 L 13.546875 -8.078125 L 21.734375 -25 L 25.640625 -25 L 13.984375 0 L 4.6875 0 Z M 3.234375 -25 "/>
          </g>
        </g>
      </g>
      <g fill="#fdfdfd" fill-opacity="1">
        <g transform="translate(94.307318, 38.544494)">
          <g>
            <path d="M 21.8125 0 L 12.59375 0 L 12.046875 -6.265625 L 4.765625 -6.265625 L 1.96875 0 L -1.84375 0 L 9.765625 -25 L 19.09375 -25 Z M 6.0625 -9.140625 L 11.765625 -9.140625 L 10.875 -19.84375 Z M 6.0625 -9.140625 "/>
          </g>
        </g>
      </g>
      <g fill="#fdfdfd" fill-opacity="1">
        <g transform="translate(118.012432, 38.544494)">
          <g>
            <path d="M 20.984375 0 L 11.765625 0 L 7.40625 -18.078125 L 3.546875 0 L 0 0 L 5.3125 -25 L 14.71875 -25 L 18.859375 -6.6875 L 22.765625 -25 L 26.375 -25 Z M 20.984375 0 "/>
          </g>
        </g>
      </g>
    </g>
  </g>
  <path stroke-linecap="butt" fill="none" stroke-linejoin="miter" d="M 26.997 95.875 L 166.767 95.875" stroke="#fdfdfd" stroke-width="3" stroke-opacity="1" stroke-miterlimit="4"/>
  <path stroke-linecap="butt" fill="none" stroke-linejoin="miter" d="M 32.204 65.097 L 172.81 65.097" stroke="#fdfdfd" stroke-width="3" stroke-opacity="1" stroke-miterlimit="4"/>
  <g transform="matrix(1, 0, 0, 1, 51.903431, 98.069885)">
    <g clip-path="url(#f616884d3d)">
      <g fill="#fdfdfd" fill-opacity="1">
        <g transform="translate(1.172542, 9.870228)">
          <g>
            <path d="M 3.4375 0 L 3.296875 -0.625 L 3.265625 -0.625 C 3.046875 -0.351562 2.828125 -0.164062 2.609375 -0.0625 C 2.390625 0.03125 2.113281 0.078125 1.78125 0.078125 C 1.34375 0.078125 1 -0.03125 0.75 -0.25 C 0.5 -0.476562 0.375 -0.800781 0.375 -1.21875 C 0.375 -2.113281 1.085938 -2.582031 2.515625 -2.625 L 3.265625 -2.65625 L 3.265625 -2.921875 C 3.265625 -3.273438 3.191406 -3.53125 3.046875 -3.6875 C 2.898438 -3.851562 2.660156 -3.9375 2.328125 -3.9375 C 1.960938 -3.9375 1.546875 -3.828125 1.078125 -3.609375 L 0.875 -4.109375 C 1.09375 -4.234375 1.332031 -4.328125 1.59375 -4.390625 C 1.851562 -4.460938 2.113281 -4.5 2.375 -4.5 C 2.90625 -4.5 3.296875 -4.378906 3.546875 -4.140625 C 3.796875 -3.910156 3.921875 -3.535156 3.921875 -3.015625 L 3.921875 0 Z M 1.921875 -0.46875 C 2.335938 -0.46875 2.660156 -0.582031 2.890625 -0.8125 C 3.128906 -1.039062 3.25 -1.363281 3.25 -1.78125 L 3.25 -2.171875 L 2.59375 -2.140625 C 2.050781 -2.128906 1.660156 -2.046875 1.421875 -1.890625 C 1.191406 -1.742188 1.078125 -1.519531 1.078125 -1.21875 C 1.078125 -0.976562 1.148438 -0.789062 1.296875 -0.65625 C 1.441406 -0.53125 1.648438 -0.46875 1.921875 -0.46875 Z M 1.921875 -0.46875 "/>
          </g>
        </g>
        <g transform="translate(5.767907, 9.870228)">
          <g>
            <path d="M 1.34375 -4.421875 L 1.34375 -1.546875 C 1.34375 -1.191406 1.421875 -0.925781 1.578125 -0.75 C 1.742188 -0.570312 2.003906 -0.484375 2.359375 -0.484375 C 2.816406 -0.484375 3.148438 -0.609375 3.359375 -0.859375 C 3.578125 -1.109375 3.6875 -1.519531 3.6875 -2.09375 L 3.6875 -4.421875 L 4.359375 -4.421875 L 4.359375 0 L 3.8125 0 L 3.71875 -0.59375 L 3.671875 -0.59375 C 3.535156 -0.375 3.34375 -0.207031 3.09375 -0.09375 C 2.851562 0.0195312 2.578125 0.078125 2.265625 0.078125 C 1.734375 0.078125 1.332031 -0.046875 1.0625 -0.296875 C 0.789062 -0.554688 0.65625 -0.96875 0.65625 -1.53125 L 0.65625 -4.421875 Z M 1.34375 -4.421875 "/>
          </g>
        </g>
        <g transform="translate(10.839351, 9.870228)">
          <g>
            <path d="M 2.140625 -0.46875 C 2.253906 -0.46875 2.363281 -0.476562 2.46875 -0.5 C 2.582031 -0.519531 2.675781 -0.535156 2.75 -0.546875 L 2.75 -0.046875 C 2.675781 -0.00390625 2.566406 0.0234375 2.421875 0.046875 C 2.285156 0.0664062 2.160156 0.078125 2.046875 0.078125 C 1.191406 0.078125 0.765625 -0.367188 0.765625 -1.265625 L 0.765625 -3.90625 L 0.125 -3.90625 L 0.125 -4.21875 L 0.765625 -4.5 L 1.046875 -5.453125 L 1.421875 -5.453125 L 1.421875 -4.421875 L 2.71875 -4.421875 L 2.71875 -3.90625 L 1.421875 -3.90625 L 1.421875 -1.296875 C 1.421875 -1.035156 1.484375 -0.832031 1.609375 -0.6875 C 1.742188 -0.539062 1.921875 -0.46875 2.140625 -0.46875 Z M 2.140625 -0.46875 "/>
          </g>
        </g>
        <g transform="translate(13.756338, 9.870228)">
          <g>
            <path d="M 4.53125 -2.21875 C 4.53125 -1.5 4.347656 -0.9375 3.984375 -0.53125 C 3.617188 -0.125 3.117188 0.078125 2.484375 0.078125 C 2.085938 0.078125 1.734375 -0.0078125 1.421875 -0.1875 C 1.117188 -0.375 0.882812 -0.640625 0.71875 -0.984375 C 0.550781 -1.335938 0.46875 -1.75 0.46875 -2.21875 C 0.46875 -2.9375 0.644531 -3.492188 1 -3.890625 C 1.363281 -4.296875 1.863281 -4.5 2.5 -4.5 C 3.125 -4.5 3.617188 -4.289062 3.984375 -3.875 C 4.347656 -3.46875 4.53125 -2.914062 4.53125 -2.21875 Z M 1.15625 -2.21875 C 1.15625 -1.65625 1.269531 -1.222656 1.5 -0.921875 C 1.726562 -0.628906 2.0625 -0.484375 2.5 -0.484375 C 2.9375 -0.484375 3.265625 -0.628906 3.484375 -0.921875 C 3.710938 -1.210938 3.828125 -1.644531 3.828125 -2.21875 C 3.828125 -2.78125 3.710938 -3.207031 3.484375 -3.5 C 3.265625 -3.789062 2.929688 -3.9375 2.484375 -3.9375 C 2.046875 -3.9375 1.710938 -3.789062 1.484375 -3.5 C 1.265625 -3.21875 1.15625 -2.789062 1.15625 -2.21875 Z M 1.15625 -2.21875 "/>
          </g>
        </g>
        <g transform="translate(18.74709, 9.870228)">
          <g>
            <path d="M 0.34375 -1.90625 L 0.34375 -2.515625 L 2.328125 -2.515625 L 2.328125 -1.90625 Z M 0.34375 -1.90625 "/>
          </g>
        </g>
        <g transform="translate(21.405866, 9.870228)">
          <g>
            <path d="M 2.765625 0.078125 C 2.484375 0.078125 2.222656 0.0234375 1.984375 -0.078125 C 1.742188 -0.179688 1.539062 -0.34375 1.375 -0.5625 L 1.328125 -0.5625 C 1.359375 -0.3125 1.375 -0.0664062 1.375 0.171875 L 1.375 1.984375 L 0.703125 1.984375 L 0.703125 -4.421875 L 1.25 -4.421875 L 1.34375 -3.8125 L 1.375 -3.8125 C 1.550781 -4.0625 1.753906 -4.238281 1.984375 -4.34375 C 2.210938 -4.445312 2.472656 -4.5 2.765625 -4.5 C 3.359375 -4.5 3.8125 -4.296875 4.125 -3.890625 C 4.445312 -3.492188 4.609375 -2.9375 4.609375 -2.21875 C 4.609375 -1.488281 4.441406 -0.921875 4.109375 -0.515625 C 3.785156 -0.117188 3.335938 0.078125 2.765625 0.078125 Z M 2.671875 -3.9375 C 2.222656 -3.9375 1.894531 -3.8125 1.6875 -3.5625 C 1.488281 -3.3125 1.382812 -2.910156 1.375 -2.359375 L 1.375 -2.21875 C 1.375 -1.59375 1.476562 -1.144531 1.6875 -0.875 C 1.894531 -0.613281 2.226562 -0.484375 2.6875 -0.484375 C 3.070312 -0.484375 3.367188 -0.632812 3.578125 -0.9375 C 3.796875 -1.25 3.90625 -1.675781 3.90625 -2.21875 C 3.90625 -2.769531 3.796875 -3.191406 3.578125 -3.484375 C 3.367188 -3.785156 3.066406 -3.9375 2.671875 -3.9375 Z M 2.671875 -3.9375 "/>
          </g>
        </g>
        <g transform="translate(26.46924, 9.870228)">
          <g>
            <path d="M 2.578125 0.078125 C 1.921875 0.078125 1.40625 -0.117188 1.03125 -0.515625 C 0.65625 -0.910156 0.46875 -1.460938 0.46875 -2.171875 C 0.46875 -2.890625 0.640625 -3.457031 0.984375 -3.875 C 1.335938 -4.289062 1.8125 -4.5 2.40625 -4.5 C 2.957031 -4.5 3.394531 -4.316406 3.71875 -3.953125 C 4.039062 -3.585938 4.203125 -3.109375 4.203125 -2.515625 L 4.203125 -2.09375 L 1.15625 -2.09375 C 1.164062 -1.570312 1.296875 -1.175781 1.546875 -0.90625 C 1.796875 -0.632812 2.148438 -0.5 2.609375 -0.5 C 3.078125 -0.5 3.546875 -0.597656 4.015625 -0.796875 L 4.015625 -0.203125 C 3.773438 -0.0976562 3.550781 -0.0234375 3.34375 0.015625 C 3.132812 0.0546875 2.878906 0.078125 2.578125 0.078125 Z M 2.390625 -3.9375 C 2.035156 -3.9375 1.753906 -3.820312 1.546875 -3.59375 C 1.335938 -3.363281 1.210938 -3.046875 1.171875 -2.640625 L 3.484375 -2.640625 C 3.484375 -3.054688 3.390625 -3.375 3.203125 -3.59375 C 3.015625 -3.820312 2.742188 -3.9375 2.390625 -3.9375 Z M 2.390625 -3.9375 "/>
          </g>
        </g>
        <g transform="translate(31.104951, 9.870228)">
          <g>
            <path d="M 2.484375 0.078125 C 1.835938 0.078125 1.335938 -0.117188 0.984375 -0.515625 C 0.640625 -0.910156 0.46875 -1.46875 0.46875 -2.1875 C 0.46875 -2.925781 0.644531 -3.492188 1 -3.890625 C 1.351562 -4.296875 1.859375 -4.5 2.515625 -4.5 C 2.734375 -4.5 2.945312 -4.472656 3.15625 -4.421875 C 3.375 -4.378906 3.539062 -4.332031 3.65625 -4.28125 L 3.453125 -3.703125 C 3.304688 -3.765625 3.144531 -3.8125 2.96875 -3.84375 C 2.789062 -3.882812 2.632812 -3.90625 2.5 -3.90625 C 1.601562 -3.90625 1.15625 -3.332031 1.15625 -2.1875 C 1.15625 -1.644531 1.265625 -1.226562 1.484375 -0.9375 C 1.703125 -0.644531 2.03125 -0.5 2.46875 -0.5 C 2.832031 -0.5 3.207031 -0.582031 3.59375 -0.75 L 3.59375 -0.15625 C 3.300781 0 2.929688 0.078125 2.484375 0.078125 Z M 3.078125 1.171875 C 3.078125 1.429688 2.972656 1.628906 2.765625 1.765625 C 2.554688 1.910156 2.25 1.984375 1.84375 1.984375 C 1.707031 1.984375 1.582031 1.972656 1.46875 1.953125 L 1.46875 1.515625 C 1.582031 1.535156 1.71875 1.546875 1.875 1.546875 C 2.09375 1.546875 2.253906 1.519531 2.359375 1.46875 C 2.472656 1.414062 2.53125 1.316406 2.53125 1.171875 C 2.53125 1.054688 2.472656 0.960938 2.359375 0.890625 C 2.253906 0.816406 2.054688 0.757812 1.765625 0.71875 L 2.125 0 L 2.5625 0 L 2.34375 0.46875 C 2.832031 0.570312 3.078125 0.804688 3.078125 1.171875 Z M 3.078125 1.171875 "/>
          </g>
        </g>
        <g transform="translate(35.038648, 9.870228)">
          <g>
            <path d="M 3.4375 0 L 3.296875 -0.625 L 3.265625 -0.625 C 3.046875 -0.351562 2.828125 -0.164062 2.609375 -0.0625 C 2.390625 0.03125 2.113281 0.078125 1.78125 0.078125 C 1.34375 0.078125 1 -0.03125 0.75 -0.25 C 0.5 -0.476562 0.375 -0.800781 0.375 -1.21875 C 0.375 -2.113281 1.085938 -2.582031 2.515625 -2.625 L 3.265625 -2.65625 L 3.265625 -2.921875 C 3.265625 -3.273438 3.191406 -3.53125 3.046875 -3.6875 C 2.898438 -3.851562 2.660156 -3.9375 2.328125 -3.9375 C 1.960938 -3.9375 1.546875 -3.828125 1.078125 -3.609375 L 0.875 -4.109375 C 1.09375 -4.234375 1.332031 -4.328125 1.59375 -4.390625 C 1.851562 -4.460938 2.113281 -4.5 2.375 -4.5 C 2.90625 -4.5 3.296875 -4.378906 3.546875 -4.140625 C 3.796875 -3.910156 3.921875 -3.535156 3.921875 -3.015625 L 3.921875 0 Z M 1.921875 -0.46875 C 2.335938 -0.46875 2.660156 -0.582031 2.890625 -0.8125 C 3.128906 -1.039062 3.25 -1.363281 3.25 -1.78125 L 3.25 -2.171875 L 2.59375 -2.140625 C 2.050781 -2.128906 1.660156 -2.046875 1.421875 -1.890625 C 1.191406 -1.742188 1.078125 -1.519531 1.078125 -1.21875 C 1.078125 -0.976562 1.148438 -0.789062 1.296875 -0.65625 C 1.441406 -0.53125 1.648438 -0.46875 1.921875 -0.46875 Z M 1.921875 -0.46875 "/>
          </g>
        </g>
        <g transform="translate(39.634013, 9.870228)">
          <g>
            <path d="M 3.5625 -1.203125 C 3.5625 -0.796875 3.40625 -0.476562 3.09375 -0.25 C 2.789062 -0.03125 2.363281 0.078125 1.8125 0.078125 C 1.226562 0.078125 0.769531 -0.015625 0.4375 -0.203125 L 0.4375 -0.8125 C 0.65625 -0.707031 0.882812 -0.625 1.125 -0.5625 C 1.363281 -0.5 1.597656 -0.46875 1.828125 -0.46875 C 2.179688 -0.46875 2.453125 -0.523438 2.640625 -0.640625 C 2.828125 -0.753906 2.921875 -0.925781 2.921875 -1.15625 C 2.921875 -1.320312 2.84375 -1.46875 2.6875 -1.59375 C 2.539062 -1.71875 2.25 -1.863281 1.8125 -2.03125 C 1.40625 -2.175781 1.113281 -2.304688 0.9375 -2.421875 C 0.769531 -2.535156 0.640625 -2.664062 0.546875 -2.8125 C 0.460938 -2.957031 0.421875 -3.132812 0.421875 -3.34375 C 0.421875 -3.695312 0.566406 -3.976562 0.859375 -4.1875 C 1.160156 -4.394531 1.566406 -4.5 2.078125 -4.5 C 2.546875 -4.5 3.007812 -4.40625 3.46875 -4.21875 L 3.234375 -3.671875 C 2.785156 -3.847656 2.382812 -3.9375 2.03125 -3.9375 C 1.707031 -3.9375 1.460938 -3.882812 1.296875 -3.78125 C 1.140625 -3.6875 1.0625 -3.550781 1.0625 -3.375 C 1.0625 -3.257812 1.09375 -3.160156 1.15625 -3.078125 C 1.21875 -2.992188 1.316406 -2.914062 1.453125 -2.84375 C 1.585938 -2.769531 1.84375 -2.660156 2.21875 -2.515625 C 2.75 -2.328125 3.101562 -2.132812 3.28125 -1.9375 C 3.46875 -1.738281 3.5625 -1.492188 3.5625 -1.203125 Z M 3.5625 -1.203125 "/>
          </g>
        </g>
        <g transform="translate(43.575779, 9.870228)">
          <g/>
        </g>
        <g transform="translate(45.722166, 9.870228)">
          <g>
            <path d="M 2.578125 0.078125 C 1.921875 0.078125 1.40625 -0.117188 1.03125 -0.515625 C 0.65625 -0.910156 0.46875 -1.460938 0.46875 -2.171875 C 0.46875 -2.890625 0.640625 -3.457031 0.984375 -3.875 C 1.335938 -4.289062 1.8125 -4.5 2.40625 -4.5 C 2.957031 -4.5 3.394531 -4.316406 3.71875 -3.953125 C 4.039062 -3.585938 4.203125 -3.109375 4.203125 -2.515625 L 4.203125 -2.09375 L 1.15625 -2.09375 C 1.164062 -1.570312 1.296875 -1.175781 1.546875 -0.90625 C 1.796875 -0.632812 2.148438 -0.5 2.609375 -0.5 C 3.078125 -0.5 3.546875 -0.597656 4.015625 -0.796875 L 4.015625 -0.203125 C 3.773438 -0.0976562 3.550781 -0.0234375 3.34375 0.015625 C 3.132812 0.0546875 2.878906 0.078125 2.578125 0.078125 Z M 2.390625 -3.9375 C 2.035156 -3.9375 1.753906 -3.820312 1.546875 -3.59375 C 1.335938 -3.363281 1.210938 -3.046875 1.171875 -2.640625 L 3.484375 -2.640625 C 3.484375 -3.054688 3.390625 -3.375 3.203125 -3.59375 C 3.015625 -3.820312 2.742188 -3.9375 2.390625 -3.9375 Z M 2.390625 -3.9375 "/>
          </g>
        </g>
        <g transform="translate(50.357876, 9.870228)">
          <g/>
        </g>
        <g transform="translate(52.504263, 9.870228)">
          <g>
            <path d="M 3.4375 0 L 3.296875 -0.625 L 3.265625 -0.625 C 3.046875 -0.351562 2.828125 -0.164062 2.609375 -0.0625 C 2.390625 0.03125 2.113281 0.078125 1.78125 0.078125 C 1.34375 0.078125 1 -0.03125 0.75 -0.25 C 0.5 -0.476562 0.375 -0.800781 0.375 -1.21875 C 0.375 -2.113281 1.085938 -2.582031 2.515625 -2.625 L 3.265625 -2.65625 L 3.265625 -2.921875 C 3.265625 -3.273438 3.191406 -3.53125 3.046875 -3.6875 C 2.898438 -3.851562 2.660156 -3.9375 2.328125 -3.9375 C 1.960938 -3.9375 1.546875 -3.828125 1.078125 -3.609375 L 0.875 -4.109375 C 1.09375 -4.234375 1.332031 -4.328125 1.59375 -4.390625 C 1.851562 -4.460938 2.113281 -4.5 2.375 -4.5 C 2.90625 -4.5 3.296875 -4.378906 3.546875 -4.140625 C 3.796875 -3.910156 3.921875 -3.535156 3.921875 -3.015625 L 3.921875 0 Z M 1.921875 -0.46875 C 2.335938 -0.46875 2.660156 -0.582031 2.890625 -0.8125 C 3.128906 -1.039062 3.25 -1.363281 3.25 -1.78125 L 3.25 -2.171875 L 2.59375 -2.140625 C 2.050781 -2.128906 1.660156 -2.046875 1.421875 -1.890625 C 1.191406 -1.742188 1.078125 -1.519531 1.078125 -1.21875 C 1.078125 -0.976562 1.148438 -0.789062 1.296875 -0.65625 C 1.441406 -0.53125 1.648438 -0.46875 1.921875 -0.46875 Z M 1.921875 -0.46875 "/>
          </g>
        </g>
        <g transform="translate(57.099628, 9.870228)">
          <g>
            <path d="M 2.484375 0.078125 C 1.835938 0.078125 1.335938 -0.117188 0.984375 -0.515625 C 0.640625 -0.910156 0.46875 -1.46875 0.46875 -2.1875 C 0.46875 -2.925781 0.644531 -3.492188 1 -3.890625 C 1.351562 -4.296875 1.859375 -4.5 2.515625 -4.5 C 2.734375 -4.5 2.945312 -4.472656 3.15625 -4.421875 C 3.375 -4.378906 3.539062 -4.332031 3.65625 -4.28125 L 3.453125 -3.703125 C 3.304688 -3.765625 3.144531 -3.8125 2.96875 -3.84375 C 2.789062 -3.882812 2.632812 -3.90625 2.5 -3.90625 C 1.601562 -3.90625 1.15625 -3.332031 1.15625 -2.1875 C 1.15625 -1.644531 1.265625 -1.226562 1.484375 -0.9375 C 1.703125 -0.644531 2.03125 -0.5 2.46875 -0.5 C 2.832031 -0.5 3.207031 -0.582031 3.59375 -0.75 L 3.59375 -0.15625 C 3.300781 0 2.929688 0.078125 2.484375 0.078125 Z M 2.484375 0.078125 "/>
          </g>
        </g>
        <g transform="translate(61.033325, 9.870228)">
          <g>
            <path d="M 2.578125 0.078125 C 1.921875 0.078125 1.40625 -0.117188 1.03125 -0.515625 C 0.65625 -0.910156 0.46875 -1.460938 0.46875 -2.171875 C 0.46875 -2.890625 0.640625 -3.457031 0.984375 -3.875 C 1.335938 -4.289062 1.8125 -4.5 2.40625 -4.5 C 2.957031 -4.5 3.394531 -4.316406 3.71875 -3.953125 C 4.039062 -3.585938 4.203125 -3.109375 4.203125 -2.515625 L 4.203125 -2.09375 L 1.15625 -2.09375 C 1.164062 -1.570312 1.296875 -1.175781 1.546875 -0.90625 C 1.796875 -0.632812 2.148438 -0.5 2.609375 -0.5 C 3.078125 -0.5 3.546875 -0.597656 4.015625 -0.796875 L 4.015625 -0.203125 C 3.773438 -0.0976562 3.550781 -0.0234375 3.34375 0.015625 C 3.132812 0.0546875 2.878906 0.078125 2.578125 0.078125 Z M 2.390625 -3.9375 C 2.035156 -3.9375 1.753906 -3.820312 1.546875 -3.59375 C 1.335938 -3.363281 1.210938 -3.046875 1.171875 -2.640625 L 3.484375 -2.640625 C 3.484375 -3.054688 3.390625 -3.375 3.203125 -3.59375 C 3.015625 -3.820312 2.742188 -3.9375 2.390625 -3.9375 Z M 2.390625 -3.9375 "/>
          </g>
        </g>
        <g transform="translate(65.669036, 9.870228)">
          <g>
            <path d="M 3.5625 -1.203125 C 3.5625 -0.796875 3.40625 -0.476562 3.09375 -0.25 C 2.789062 -0.03125 2.363281 0.078125 1.8125 0.078125 C 1.226562 0.078125 0.769531 -0.015625 0.4375 -0.203125 L 0.4375 -0.8125 C 0.65625 -0.707031 0.882812 -0.625 1.125 -0.5625 C 1.363281 -0.5 1.597656 -0.46875 1.828125 -0.46875 C 2.179688 -0.46875 2.453125 -0.523438 2.640625 -0.640625 C 2.828125 -0.753906 2.921875 -0.925781 2.921875 -1.15625 C 2.921875 -1.320312 2.84375 -1.46875 2.6875 -1.59375 C 2.539062 -1.71875 2.25 -1.863281 1.8125 -2.03125 C 1.40625 -2.175781 1.113281 -2.304688 0.9375 -2.421875 C 0.769531 -2.535156 0.640625 -2.664062 0.546875 -2.8125 C 0.460938 -2.957031 0.421875 -3.132812 0.421875 -3.34375 C 0.421875 -3.695312 0.566406 -3.976562 0.859375 -4.1875 C 1.160156 -4.394531 1.566406 -4.5 2.078125 -4.5 C 2.546875 -4.5 3.007812 -4.40625 3.46875 -4.21875 L 3.234375 -3.671875 C 2.785156 -3.847656 2.382812 -3.9375 2.03125 -3.9375 C 1.707031 -3.9375 1.460938 -3.882812 1.296875 -3.78125 C 1.140625 -3.6875 1.0625 -3.550781 1.0625 -3.375 C 1.0625 -3.257812 1.09375 -3.160156 1.15625 -3.078125 C 1.21875 -2.992188 1.316406 -2.914062 1.453125 -2.84375 C 1.585938 -2.769531 1.84375 -2.660156 2.21875 -2.515625 C 2.75 -2.328125 3.101562 -2.132812 3.28125 -1.9375 C 3.46875 -1.738281 3.5625 -1.492188 3.5625 -1.203125 Z M 3.5625 -1.203125 "/>
          </g>
        </g>
        <g transform="translate(69.610802, 9.870228)">
          <g>
            <path d="M 3.5625 -1.203125 C 3.5625 -0.796875 3.40625 -0.476562 3.09375 -0.25 C 2.789062 -0.03125 2.363281 0.078125 1.8125 0.078125 C 1.226562 0.078125 0.769531 -0.015625 0.4375 -0.203125 L 0.4375 -0.8125 C 0.65625 -0.707031 0.882812 -0.625 1.125 -0.5625 C 1.363281 -0.5 1.597656 -0.46875 1.828125 -0.46875 C 2.179688 -0.46875 2.453125 -0.523438 2.640625 -0.640625 C 2.828125 -0.753906 2.921875 -0.925781 2.921875 -1.15625 C 2.921875 -1.320312 2.84375 -1.46875 2.6875 -1.59375 C 2.539062 -1.71875 2.25 -1.863281 1.8125 -2.03125 C 1.40625 -2.175781 1.113281 -2.304688 0.9375 -2.421875 C 0.769531 -2.535156 0.640625 -2.664062 0.546875 -2.8125 C 0.460938 -2.957031 0.421875 -3.132812 0.421875 -3.34375 C 0.421875 -3.695312 0.566406 -3.976562 0.859375 -4.1875 C 1.160156 -4.394531 1.566406 -4.5 2.078125 -4.5 C 2.546875 -4.5 3.007812 -4.40625 3.46875 -4.21875 L 3.234375 -3.671875 C 2.785156 -3.847656 2.382812 -3.9375 2.03125 -3.9375 C 1.707031 -3.9375 1.460938 -3.882812 1.296875 -3.78125 C 1.140625 -3.6875 1.0625 -3.550781 1.0625 -3.375 C 1.0625 -3.257812 1.09375 -3.160156 1.15625 -3.078125 C 1.21875 -2.992188 1.316406 -2.914062 1.453125 -2.84375 C 1.585938 -2.769531 1.84375 -2.660156 2.21875 -2.515625 C 2.75 -2.328125 3.101562 -2.132812 3.28125 -1.9375 C 3.46875 -1.738281 3.5625 -1.492188 3.5625 -1.203125 Z M 3.5625 -1.203125 "/>
          </g>
        </g>
        <g transform="translate(73.552568, 9.870228)">
          <g>
            <path d="M 4.53125 -2.21875 C 4.53125 -1.5 4.347656 -0.9375 3.984375 -0.53125 C 3.617188 -0.125 3.117188 0.078125 2.484375 0.078125 C 2.085938 0.078125 1.734375 -0.0078125 1.421875 -0.1875 C 1.117188 -0.375 0.882812 -0.640625 0.71875 -0.984375 C 0.550781 -1.335938 0.46875 -1.75 0.46875 -2.21875 C 0.46875 -2.9375 0.644531 -3.492188 1 -3.890625 C 1.363281 -4.296875 1.863281 -4.5 2.5 -4.5 C 3.125 -4.5 3.617188 -4.289062 3.984375 -3.875 C 4.347656 -3.46875 4.53125 -2.914062 4.53125 -2.21875 Z M 1.15625 -2.21875 C 1.15625 -1.65625 1.269531 -1.222656 1.5 -0.921875 C 1.726562 -0.628906 2.0625 -0.484375 2.5 -0.484375 C 2.9375 -0.484375 3.265625 -0.628906 3.484375 -0.921875 C 3.710938 -1.210938 3.828125 -1.644531 3.828125 -2.21875 C 3.828125 -2.78125 3.710938 -3.207031 3.484375 -3.5 C 3.265625 -3.789062 2.929688 -3.9375 2.484375 -3.9375 C 2.046875 -3.9375 1.710938 -3.789062 1.484375 -3.5 C 1.265625 -3.21875 1.15625 -2.789062 1.15625 -2.21875 Z M 1.9375 -5.109375 C 2.0625 -5.273438 2.195312 -5.472656 2.34375 -5.703125 C 2.5 -5.941406 2.617188 -6.148438 2.703125 -6.328125 L 3.515625 -6.328125 L 3.515625 -6.25 C 3.398438 -6.070312 3.222656 -5.851562 2.984375 -5.59375 C 2.753906 -5.34375 2.550781 -5.148438 2.375 -5.015625 L 1.9375 -5.015625 Z M 1.9375 -5.109375 "/>
          </g>
        </g>
        <g transform="translate(78.54332, 9.870228)">
          <g>
            <path d="M 2.734375 -4.5 C 2.921875 -4.5 3.09375 -4.484375 3.25 -4.453125 L 3.171875 -3.828125 C 2.984375 -3.867188 2.820312 -3.890625 2.6875 -3.890625 C 2.320312 -3.890625 2.007812 -3.742188 1.75 -3.453125 C 1.5 -3.160156 1.375 -2.800781 1.375 -2.375 L 1.375 0 L 0.703125 0 L 0.703125 -4.421875 L 1.265625 -4.421875 L 1.34375 -3.609375 L 1.375 -3.609375 C 1.539062 -3.890625 1.738281 -4.109375 1.96875 -4.265625 C 2.195312 -4.421875 2.453125 -4.5 2.734375 -4.5 Z M 2.734375 -4.5 "/>
          </g>
        </g>
        <g transform="translate(81.916213, 9.870228)">
          <g>
            <path d="M 1.375 0 L 0.703125 0 L 0.703125 -4.421875 L 1.375 -4.421875 Z M 0.65625 -5.625 C 0.65625 -5.78125 0.691406 -5.890625 0.765625 -5.953125 C 0.835938 -6.023438 0.929688 -6.0625 1.046875 -6.0625 C 1.148438 -6.0625 1.238281 -6.023438 1.3125 -5.953125 C 1.394531 -5.878906 1.4375 -5.769531 1.4375 -5.625 C 1.4375 -5.46875 1.394531 -5.351562 1.3125 -5.28125 C 1.238281 -5.207031 1.148438 -5.171875 1.046875 -5.171875 C 0.929688 -5.171875 0.835938 -5.207031 0.765625 -5.28125 C 0.691406 -5.351562 0.65625 -5.46875 0.65625 -5.625 Z M 0.65625 -5.625 "/>
          </g>
        </g>
        <g transform="translate(84.006116, 9.870228)">
          <g>
            <path d="M 4.53125 -2.21875 C 4.53125 -1.5 4.347656 -0.9375 3.984375 -0.53125 C 3.617188 -0.125 3.117188 0.078125 2.484375 0.078125 C 2.085938 0.078125 1.734375 -0.0078125 1.421875 -0.1875 C 1.117188 -0.375 0.882812 -0.640625 0.71875 -0.984375 C 0.550781 -1.335938 0.46875 -1.75 0.46875 -2.21875 C 0.46875 -2.9375 0.644531 -3.492188 1 -3.890625 C 1.363281 -4.296875 1.863281 -4.5 2.5 -4.5 C 3.125 -4.5 3.617188 -4.289062 3.984375 -3.875 C 4.347656 -3.46875 4.53125 -2.914062 4.53125 -2.21875 Z M 1.15625 -2.21875 C 1.15625 -1.65625 1.269531 -1.222656 1.5 -0.921875 C 1.726562 -0.628906 2.0625 -0.484375 2.5 -0.484375 C 2.9375 -0.484375 3.265625 -0.628906 3.484375 -0.921875 C 3.710938 -1.210938 3.828125 -1.644531 3.828125 -2.21875 C 3.828125 -2.78125 3.710938 -3.207031 3.484375 -3.5 C 3.265625 -3.789062 2.929688 -3.9375 2.484375 -3.9375 C 2.046875 -3.9375 1.710938 -3.789062 1.484375 -3.5 C 1.265625 -3.21875 1.15625 -2.789062 1.15625 -2.21875 Z M 1.15625 -2.21875 "/>
          </g>
        </g>
        <g transform="translate(88.996868, 9.870228)">
          <g>
            <path d="M 3.5625 -1.203125 C 3.5625 -0.796875 3.40625 -0.476562 3.09375 -0.25 C 2.789062 -0.03125 2.363281 0.078125 1.8125 0.078125 C 1.226562 0.078125 0.769531 -0.015625 0.4375 -0.203125 L 0.4375 -0.8125 C 0.65625 -0.707031 0.882812 -0.625 1.125 -0.5625 C 1.363281 -0.5 1.597656 -0.46875 1.828125 -0.46875 C 2.179688 -0.46875 2.453125 -0.523438 2.640625 -0.640625 C 2.828125 -0.753906 2.921875 -0.925781 2.921875 -1.15625 C 2.921875 -1.320312 2.84375 -1.46875 2.6875 -1.59375 C 2.539062 -1.71875 2.25 -1.863281 1.8125 -2.03125 C 1.40625 -2.175781 1.113281 -2.304688 0.9375 -2.421875 C 0.769531 -2.535156 0.640625 -2.664062 0.546875 -2.8125 C 0.460938 -2.957031 0.421875 -3.132812 0.421875 -3.34375 C 0.421875 -3.695312 0.566406 -3.976562 0.859375 -4.1875 C 1.160156 -4.394531 1.566406 -4.5 2.078125 -4.5 C 2.546875 -4.5 3.007812 -4.40625 3.46875 -4.21875 L 3.234375 -3.671875 C 2.785156 -3.847656 2.382812 -3.9375 2.03125 -3.9375 C 1.707031 -3.9375 1.460938 -3.882812 1.296875 -3.78125 C 1.140625 -3.6875 1.0625 -3.550781 1.0625 -3.375 C 1.0625 -3.257812 1.09375 -3.160156 1.15625 -3.078125 C 1.21875 -2.992188 1.316406 -2.914062 1.453125 -2.84375 C 1.585938 -2.769531 1.84375 -2.660156 2.21875 -2.515625 C 2.75 -2.328125 3.101562 -2.132812 3.28125 -1.9375 C 3.46875 -1.738281 3.5625 -1.492188 3.5625 -1.203125 Z M 3.5625 -1.203125 "/>
          </g>
        </g>
      </g>
    </g>
  </g>
</svg>