<svg xmlns="http://www.w3.org/2000/svg" width="297mm" height="210mm" viewBox="0 0 29700 21000" shape-rendering="geometricPrecision" text-rendering="geometricPrecision" image-rendering="optimizeQuality" fill-rule="evenodd" clip-rule="evenodd"><defs><style>.fil0{fill:#002864}</style></defs><g id="Camada_x0020_1"><g id="_2498122990912"><path class="fil0" d="M25869.18 9209.6c787.65 0 1384.51 638.51 1333.1 1426.18-51.4 787.7-731.55 1426.19-1519.2 1426.19-787.7 0-1384.59-638.49-1333.19-1426.19 51.41-787.67 731.58-1426.18 1519.29-1426.18zm-63.85 977.78c247.59 0 435.32 200.79 419.19 448.36-16.23 247.64-230.08 448.47-477.73 448.47-247.64 0-435.31-200.83-419.15-448.47 16.17-247.57 230.05-448.36 477.69-448.36zM18886.41 8011.77l-54.14 856.6-729.05.75c-667.74-9.55-830.84 16.57-881.09 334.47l-25.41 373.62-3.98 116.09h1093.51l-58.18 921.61h-1101.9l-94.78 1393.95h-921.64l263.21-3871.25c14.57-75.29 80.88-132.16 160.42-132.16 784.21 0 1568.77-2.26 2353.03 6.32zM28470.98 12047.4c738.25 1.7 1202.62-350.63 1228.13-956.93 43.08-1022.89-1496.46-800.14-1485.54-1060.02 10.05-241.14 1009.51 61.13 1182.08 196.4l52.87-807.49c-253.88-132.1-580.05-213.82-903.27-213.82-754.81 0-1161.22 445.47-1180.88 911.55-45.66 1084.73 1499.96 816.66 1488.86 1080.65-9.55 227.72-764.15 49.22-1149.93-157.47-113.33-51.9-181.01-19.66-188.9 118.84l-42.37 647.23c256.52 161.91 553.97 240.03 998.95 241.06z"/><path class="fil0" d="M20336.2 9282.19l-60.7 857.87c-672.44-9.68-845.6 107.17-897.74 582.76l-83.76 1286.04h-921.64l168.15-2581.67c15.73-73.92 81.29-129.37 159.8-129.37h631.18c-77.27 53.75-132.6 112.45-166.7 176.04 366-245.55 745.94-228.69 1171.41-191.67zM23929.29 8207.3c247.6 0 435.33 200.77 419.22 448.35-16.23 247.61-230.1 448.46-477.76 448.46-247.63 0-435.3-200.85-419.15-448.46 16.17-247.58 230.06-448.35 477.69-448.35zM22118.96 10203.73c-7.32-158.08-169.9-342.21-409.33-348.8-239.43-6.62-430.8 186.16-465.41 348.8h874.74zm-934.31 551.55c-102.55 464.87 322.55 695.25 694.38 407.62 80.79-62.44 134.38-194.19 237.69-140.15l-33.46-13.02 786.15 306.04c-227 380.65-643.54 746.2-1272.32 746.2-850.97 0-1394.79-611.94-1343.39-1399.36 123.03-1885.56 2968.08-1930.41 2842.12-.79-2.85 30.88-1.78 63.34-6.14 93.46h-1905.03zM23345.56 9439.02h.97c8.94-80.3 76.22-143.02 158.44-144.98h773.68l-178.35 2714.82c-459.7-256.24-875.94-658.59-834.54-1338.79 25.01-410.42 53.05-820.73 79.8-1231.05zM12161.39 10203.73c-7.31-158.08-169.89-342.21-409.32-348.8-239.43-6.62-430.81 186.16-465.41 348.8h874.73zm-934.3 551.55c-102.55 464.87 322.55 695.25 694.38 407.62 80.79-62.44 134.38-194.19 237.68-140.15l-33.47-13.02 786.17 306.04c-227.01 380.65-643.54 746.2-1272.32 746.2-850.99 0-1394.8-611.94-1343.39-1399.36 123.02-1885.56 2968.08-1930.41 2842.12-.79-2.85 30.88-1.78 63.34-6.14 93.46h-1905.03zM15174.95 9282.19l-60.72 857.87c-672.43-9.68-845.58 107.17-897.74 582.76l-83.74 1286.04h-921.66l168.17-2581.67c15.73-73.92 81.29-129.37 159.8-129.37h629.68c-77.27 53.75-132.6 112.45-166.71 176.04 366.03-245.55 747.39-228.69 1172.92-191.67zM3188.74 9439.02h.96c8.95-80.3 76.23-143.02 158.45-144.98h773.69l-178.36 2714.82c-459.7-256.24-875.96-658.59-834.54-1338.79 25.01-410.42 53.05-820.73 79.8-1231.05zM0 12008.86l251.66-3856.92c9.13-81.59 78.42-145.01 162.38-145.01h773.07l-120.75 1848.25h926.36l120.61-1848.25h925.12l-261.15 4001.93h-925.09l88.88-1361.8h-926.23L926 12008.86H0zM3770.32 8230.35c247.6 0 435.34 200.83 419.21 448.37-16.23 247.65-230.08 448.46-477.73 448.46-247.64 0-435.31-200.81-419.15-448.46 16.17-247.54 230.05-448.37 477.67-448.37zM8802.68 9209.6c787.65 0 1384.5 638.51 1333.14 1426.18-51.39 787.7-731.61 1426.19-1519.27 1426.19-286.81 0-548.28-84.72-762.38-230.36 50.91 95.86 111.69 142.15 267.25 236.72l-23.94 314.85-51.82 611.66H7132.5l150.89-2359.06c1.07-16.58 2.58-33.17 4.18-49.6l75.31-1152.19c14.19-75.74 80.71-132.97 160.58-132.97v-.02h568.29c-74.92 52.85-128.81 110.54-162.24 172.86 111.97-75.13 235.69-128.14 363.71-172.73 160.42-59.07 332.21-91.53 509.46-91.53zM8293 9301h.22v.13l-.22-.13zm442 886.38c247.6 0 435.34 200.79 419.21 448.36-16.23 247.64-230.07 448.47-477.73 448.47-247.63 0-435.3-200.83-419.15-448.47 16.17-247.57 230.05-448.36 477.67-448.36zM5789.47 9209.6c787.66 0 1384.51 638.51 1333.14 1426.18-51.38 787.7-731.61 1426.19-1519.26 1426.19-286.81 0-548.28-84.72-762.39-230.36 50.91 95.86 111.69 142.15 267.26 236.72l-23.94 314.85-51.82 611.66H4119.3l150.89-2359.06c1.07-16.58 2.57-33.17 4.18-49.6l75.3-1152.19c14.19-75.74 80.72-132.97 160.58-132.97v-.02h568.3c-74.91 52.85-128.81 110.54-162.24 172.86 111.96-75.13 235.68-128.14 363.7-172.73 160.42-59.07 332.22-91.53 509.46-91.53zm-509.68 91.4h.22v.13l-.22-.13zm448.37 886.38c247.59 0 435.32 200.79 419.21 448.36-16.23 247.64-230.08 448.47-477.75 448.47-247.64 0-435.31-200.83-419.13-448.47 16.15-247.57 230.03-448.36 477.67-448.36z"/></g></g></svg>